<svg width="158" height="30" viewBox="0 0 158 30" fill="none" xmlns="http://www.w3.org/2000/svg">
<path d="M59.4842 20.8359L60.483 23.6342C58.5659 24.6553 56.4571 25.166 54.1566 25.166C50.9682 25.166 48.486 24.2724 46.7102 22.4855C44.9545 20.6788 44.0767 18.3126 44.0767 15.3865C44.0767 12.5196 45.0453 10.1238 46.9826 8.19933C48.9198 6.25523 51.4626 5.2832 54.6106 5.2832C56.6287 5.2832 58.3742 5.59739 59.8474 6.22578V9.52481C58.2128 8.68044 56.4975 8.25824 54.7015 8.25824C52.5826 8.25824 50.9278 8.93572 49.7372 10.2907C48.5465 11.626 47.9512 13.2952 47.9512 15.2982C47.9512 17.3602 48.5465 19.0293 49.7372 20.3057C50.9479 21.5625 52.5624 22.1909 54.5804 22.1909C56.2351 22.1909 57.8698 21.7392 59.4842 20.8359Z" fill="#0077CB"/>
<path d="M74.4757 23.104C73.1438 24.4786 71.4184 25.166 69.2995 25.166C67.1806 25.166 65.4552 24.4786 64.1233 23.104C62.8117 21.7294 62.1558 19.9817 62.1558 17.8609C62.1558 15.7597 62.8117 14.0218 64.1233 12.6472C65.4552 11.2726 67.1806 10.5852 69.2995 10.5852C71.4184 10.5852 73.1438 11.2726 74.4757 12.6472C75.8076 14.0218 76.4736 15.7597 76.4736 17.8609C76.4736 19.9621 75.8076 21.7098 74.4757 23.104ZM66.7266 21.101C67.332 21.9258 68.1896 22.3382 69.2995 22.3382C70.4094 22.3382 71.2569 21.9258 71.8422 21.101C72.4476 20.2763 72.7503 19.1962 72.7503 17.8609C72.7503 16.5255 72.4476 15.4553 71.8422 14.6501C71.2569 13.8254 70.4094 13.413 69.2995 13.413C68.1896 13.413 67.332 13.8254 66.7266 14.6501C66.1413 15.4553 65.8487 16.5255 65.8487 17.8609C65.8487 19.1962 66.1413 20.2763 66.7266 21.101Z" fill="#0077CB"/>
<path d="M79.3489 21.7196V4.01659H82.9511V20.777C82.9511 21.6214 83.3042 22.0436 84.0105 22.0436C84.3132 22.0436 84.6159 21.9847 84.9186 21.8669L85.6148 24.5768C84.8076 24.9107 83.9197 25.0776 82.9511 25.0776C80.5496 25.0776 79.3489 23.9582 79.3489 21.7196Z" fill="#0077CB"/>
<path d="M89.3066 24.8714V10.9388H92.3337L92.6969 12.4999C94.3719 11.2235 95.9762 10.5852 97.5101 10.5852C99.3262 10.5852 100.598 11.302 101.324 12.7356C103.08 11.302 104.795 10.5852 106.47 10.5852C107.862 10.5852 109.003 10.9976 109.89 11.8224C110.778 12.6276 111.222 13.8941 111.222 15.6222V24.8714H107.62V16.5942C107.62 15.6517 107.469 14.9251 107.166 14.4145C106.863 13.904 106.288 13.6487 105.441 13.6487C104.331 13.6487 103.201 14.1101 102.051 15.0331C102.071 15.1313 102.081 15.3081 102.081 15.5633V24.8714H98.4485V16.6238C98.4485 15.6615 98.3069 14.9251 98.0246 14.4145C97.7423 13.904 97.1768 13.6487 96.3294 13.6487C95.2396 13.6487 94.0994 14.1101 92.9088 15.0331V24.8714H89.3066Z" fill="#0077CB"/>
<path d="M126.751 18.8624H117.579C117.62 19.9424 118.003 20.8064 118.729 21.4545C119.476 22.0829 120.445 22.3971 121.635 22.3971C122.887 22.3971 124.087 22.0829 125.237 21.4545L126.327 23.8699C124.894 24.7339 123.209 25.166 121.272 25.166C118.831 25.166 116.994 24.4786 115.763 23.104C114.552 21.7098 113.947 19.9817 113.947 17.9198C113.947 15.7793 114.522 14.0218 115.672 12.6472C116.823 11.2726 118.397 10.5852 120.394 10.5852C122.392 10.5852 123.946 11.2529 125.056 12.5883C126.186 13.904 126.751 15.7204 126.751 18.0376V18.8624ZM117.549 16.4175H123.089C123.069 15.5338 122.826 14.7877 122.362 14.1788C121.898 13.5701 121.222 13.2657 120.333 13.2657C119.487 13.2657 118.81 13.5701 118.306 14.1788C117.822 14.7877 117.569 15.5338 117.549 16.4175Z" fill="#0077CB"/>
<path d="M129.45 24.8714V10.9388H132.538L132.901 12.4999C134.576 11.2235 136.21 10.5852 137.805 10.5852C139.116 10.5852 140.206 10.978 141.074 11.7635C141.962 12.5293 142.405 13.8254 142.405 15.6517V24.8714H138.773V16.7415C138.773 15.7597 138.612 15.0037 138.289 14.4734C137.986 13.9236 137.411 13.6487 136.563 13.6487C135.433 13.6487 134.263 14.1396 133.052 15.1215V24.8714H129.45Z" fill="#0077CB"/>
<path d="M154.456 24.8714L153.911 23.5459C152.701 24.6259 151.328 25.166 149.795 25.166C148.423 25.166 147.282 24.7536 146.374 23.9288C145.486 23.104 145.042 22.0338 145.042 20.7181C145.042 18.99 145.849 17.7234 147.464 16.9183C148.393 16.4469 149.623 16.1819 151.157 16.1229L153.609 16.0346V15.5928C153.609 14.0414 152.691 13.2657 150.854 13.2657C149.603 13.2657 148.352 13.5897 147.101 14.2378L145.921 11.9697C147.636 11.0468 149.482 10.5852 151.459 10.5852C155.294 10.5852 157.211 12.274 157.211 15.6517V21.3072C157.211 23.0549 157.301 24.243 157.484 24.8714H154.456ZM153.609 18.391L151.671 18.45C150.764 18.4696 150.067 18.6169 149.583 18.8918C148.998 19.206 148.705 19.7363 148.705 20.4824C148.705 21.0912 148.897 21.5625 149.28 21.8963C149.663 22.2302 150.178 22.3971 150.824 22.3971C151.813 22.3971 152.741 22.0534 153.609 21.3661V18.391Z" fill="#0077CB"/>
<path fill-rule="evenodd" clip-rule="evenodd" d="M9.95255 6.803C9.95227 7.12343 9.95198 7.44397 9.95198 7.76479C9.95198 8.00145 9.95246 8.23794 9.95294 8.4744C9.95448 9.1837 9.95602 9.89269 9.94398 10.6045C9.93598 11.4834 10.3342 12.0997 11.1492 12.4743C11.9026 12.8198 12.6553 13.1673 13.4081 13.5148C14.6606 14.0929 15.9132 14.6711 17.1701 15.2412C18.068 15.6469 18.9739 15.6573 19.8825 15.236C21.8574 14.318 23.8349 13.4105 25.8125 12.5055C26.6756 12.1102 27.1059 11.4627 27.1032 10.5291C27.0979 8.70356 27.0979 6.87543 27.1032 5.04989C27.1059 4.13972 26.705 3.48699 25.8553 3.09693C25.3629 2.87059 24.8707 2.64379 24.3785 2.41698C22.8349 1.70567 21.291 0.994209 19.7408 0.296206C18.9151 -0.0756637 18.068 -0.114671 17.2181 0.278002C15.2005 1.21158 13.1749 2.13735 11.1519 3.06052C10.3582 3.42458 9.94928 4.02009 9.95198 4.88086C9.95371 5.52221 9.95313 6.16241 9.95255 6.803ZM21.0503 9.45769C21.0396 10.901 19.8986 12.0296 18.4475 12.027C17.0177 12.0244 15.8579 10.8489 15.8713 9.42131C15.8873 7.99103 17.0604 6.80002 18.4608 6.78961C19.8665 6.77921 21.061 8.00924 21.0503 9.45769ZM0.00813747 22.2161C0.00813747 21.8952 0.00843458 21.5747 0.0087316 21.2542C0.00932537 20.6138 0.00991874 19.9735 0.00813747 19.3322C0.00546511 18.4714 0.414337 17.8759 1.20803 17.5118C3.23101 16.5887 5.25666 15.6629 7.2743 14.7292C8.12411 14.3366 8.97125 14.3756 9.79696 14.7475C11.3472 15.4455 12.8912 16.1571 14.4348 16.8683L14.4375 16.8696C14.9288 17.096 15.42 17.3223 15.9114 17.5482C16.7612 17.9383 17.1621 18.591 17.1594 19.5012C17.1541 21.3267 17.1541 23.1548 17.1594 24.9804C17.1621 25.914 16.7318 26.5615 15.8686 26.9568C13.8911 27.8617 11.9135 28.7693 9.93868 29.6873C9.03005 30.1086 8.12411 30.0982 7.2262 29.6925C5.96934 29.1224 4.71665 28.5442 3.46422 27.966C2.71145 27.6186 1.95879 27.2711 1.20536 26.9256C0.390285 26.5511 -0.00789843 25.9348 0.000118663 25.0558C0.012144 24.344 0.0106422 23.635 0.00913944 22.9257C0.0086385 22.6893 0.00813747 22.4528 0.00813747 22.2161ZM19.8511 22.2161C19.8511 21.8952 19.8514 21.5747 19.8516 21.2542V21.254C19.8522 20.6135 19.8528 19.9734 19.8511 19.3322C19.8484 18.4714 20.2572 17.8759 21.051 17.5118C23.074 16.5887 25.0996 15.6629 27.1172 14.7292C27.9671 14.3366 28.8142 14.3756 29.6399 14.7475C31.1901 15.4455 32.734 16.157 34.2777 16.8683C34.7698 17.0951 35.262 17.3219 35.7543 17.5482C36.6041 17.9383 37.0049 18.591 37.0023 19.5012C36.997 21.3267 36.997 23.1548 37.0023 24.9804C37.0049 25.914 36.5747 26.5615 35.7116 26.9568C33.734 27.8617 31.7565 28.7693 29.7816 29.6873C28.873 30.1086 27.9671 30.0982 27.0692 29.6925C25.8124 29.1224 24.5598 28.5443 23.3076 27.9663L23.3071 27.9661C22.5544 27.6186 21.8017 27.2711 21.0483 26.9256C20.2332 26.5511 19.8351 25.9348 19.8431 25.0558C19.8551 24.344 19.8536 23.6351 19.852 22.9258V22.9257C19.8515 22.6893 19.8511 22.4528 19.8511 22.2161Z" fill="#0077CB"/>
</svg>
