<?xml version="1.0" encoding="utf-8"?>
<!-- Generator: Adobe Illustrator 26.0.3, SVG Export Plug-In . SVG Version: 6.00 Build 0)  -->
<svg version="1.1" id="Capa_1" xmlns="http://www.w3.org/2000/svg" xmlns:xlink="http://www.w3.org/1999/xlink" x="0px" y="0px" width="650" height="175"
	 viewBox="0 0 650.1 175.1" style="enable-background:new 0 0 650.1 175.1;" xml:space="preserve">
<style type="text/css">
	.st0{fill:#0079C8;}
	.st1{fill:#FFFFFF;}
</style>
<g>
	<g>
		<rect x="2.4" y="26.1" class="st0" width="116.3" height="116.3"/>
		<path class="st1" d="M118.7,109.5l-10.2,0c-4.1,0-6.9-2.8-8.7-5.4l-10.1,19.3c-0.5,1-1.6,1.7-2.7,1.7c-0.2,0-0.4,0-0.6-0.1
			c-1.3-0.3-2.3-1.4-2.5-2.7l-6.1-60.6L66,110.4c-0.3,1.2-1.3,2.2-2.6,2.3c-1.3,0.2-2.5-0.5-3.1-1.6l-5.9-10.9
			c-3.1,4-9,9.3-19.3,9.3H2.4v-6.2h32.7c10.3,0,14.7-7.1,16.3-9.8c0.5-0.8,0.9-1.4,1.5-1.9c0.7-0.5,1.6-0.6,2.4-0.4
			c0.8,0.2,1.5,0.8,2,1.5l4.5,8.3l14.2-58.4c0.4-1.5,1.7-2.5,3.2-2.3c1.5,0.1,2.7,1.3,2.8,2.8l6.8,68.2l7.9-15.2
			c0.4-0.9,1.3-1.5,2.2-1.6c1-0.1,1.9,0.1,2.6,0.8c0.6,0.5,0.9,1.2,1.5,2.3c1,1.9,2.9,5.6,5.2,5.6l10.2,0V109.5z"/>
	</g>
	<g>
		<g>
			<path class="st0" d="M171,127.4c-0.8,1.2-1.7,2.3-2.9,3.1c-1.2,0.8-2.5,1.5-3.9,1.9c-1.5,0.4-3,0.6-4.6,0.6h-5.8l-1.1,9.3h-5.1
				l3.6-29h11.4c1.7,0,3.2,0.2,4.5,0.7c1.3,0.5,2.4,1.1,3.2,2c0.8,0.9,1.5,1.9,1.8,3.1c0.4,1.2,0.5,2.5,0.3,4
				C172.2,124.7,171.7,126.2,171,127.4z M166,119.3c-1-0.9-2.5-1.3-4.4-1.3h-6l-1.3,10.5h6c1.9,0,3.5-0.5,4.8-1.4
				c1.2-1,2-2.2,2.2-3.8C167.4,121.5,167,120.1,166,119.3z"/>
		</g>
		<path class="st0" d="M173,131.5L173,131.5c0.9-7.3,6.3-11.5,11.6-11.5c3.6,0,5.7,1.8,7,3.9l0.4-3.4h5l-2.7,21.9h-5l0.4-3.7
			c-1.9,2.3-4.4,4.1-8,4.1C176.7,142.8,172.2,138.7,173,131.5z M190.8,131.5L190.8,131.5c0.5-4.3-2.1-7.1-5.5-7.1
			c-3.4,0-6.6,2.7-7.2,7l0,0.1c-0.5,4.2,2,7,5.4,7C186.9,138.5,190.2,135.7,190.8,131.5z"/>
		<g>
			<path class="st0" d="M204.7,142.4h-5.1l2.7-21.9h5.1l-0.6,4.9c0.9-1.7,2-3,3.4-4c1.4-1,3.1-1.5,5-1.4l-0.7,5.3h-0.3
				c-1.1,0-2.1,0.2-3.1,0.5c-1,0.4-1.8,0.9-2.6,1.6c-0.8,0.7-1.4,1.6-1.9,2.7c-0.5,1.1-0.8,2.4-1,3.8L204.7,142.4z"/>
		</g>
		<g>
			<path class="st0" d="M222.7,135.5c-0.1,1,0,1.7,0.4,2.1c0.4,0.4,1.1,0.6,1.9,0.6c1.1,0,2.1-0.2,3.2-0.7l-0.5,4.1
				c-0.7,0.4-1.4,0.6-2.1,0.8c-0.7,0.2-1.6,0.3-2.5,0.3c-0.9,0-1.7-0.1-2.5-0.3c-0.8-0.2-1.4-0.6-1.9-1.1c-0.5-0.5-0.9-1.2-1.1-2
				c-0.2-0.8-0.2-1.8-0.1-3.1l1.4-11.6h-2.8l0.5-4.3h2.8l0.7-6h5.1l-0.7,6h5.9l-0.5,4.3H224L222.7,135.5z"/>
		</g>
		<g>
			<path class="st0" d="M237.5,137.4c1,1,2.3,1.4,4,1.4c1.2,0,2.4-0.2,3.3-0.7c1-0.4,1.9-1.1,2.9-1.9l2.6,2.6
				c-1.2,1.2-2.6,2.2-4.1,3c-1.5,0.7-3.3,1.1-5.3,1.1c-1.6,0-3-0.3-4.3-0.8c-1.3-0.6-2.4-1.3-3.3-2.3c-0.9-1-1.5-2.2-1.9-3.6
				c-0.4-1.4-0.5-3-0.3-4.7c0.2-1.6,0.6-3.1,1.3-4.4c0.7-1.4,1.6-2.6,2.7-3.6c1.1-1,2.3-1.9,3.7-2.5c1.4-0.6,2.9-0.9,4.4-0.9
				c1.7,0,3.2,0.3,4.5,1c1.2,0.6,2.2,1.5,3,2.6c0.7,1.1,1.2,2.3,1.5,3.8c0.3,1.4,0.3,2.9,0.1,4.5c0,0.2-0.1,0.4-0.1,0.7
				c0,0.2-0.1,0.5-0.1,0.7h-16.1C235.9,135,236.5,136.4,237.5,137.4z M247.5,129.9c0-0.8-0.1-1.6-0.3-2.3c-0.2-0.7-0.5-1.3-0.9-1.8
				c-0.4-0.5-0.9-0.9-1.5-1.2c-0.6-0.3-1.3-0.5-2.2-0.5c-1.5,0-2.9,0.5-4,1.6c-1.1,1.1-1.9,2.5-2.4,4.2H247.5z"/>
		</g>
		<g>
			<path class="st0" d="M281.1,142.4l0.4-3.7c-0.9,1.1-2.1,2.1-3.4,2.9c-1.3,0.8-2.8,1.2-4.6,1.2c-1.3,0-2.5-0.2-3.7-0.7
				c-1.2-0.5-2.1-1.2-3-2.2c-0.8-1-1.4-2.2-1.8-3.6c-0.4-1.4-0.5-3-0.3-4.9c0.2-1.8,0.7-3.4,1.4-4.9c0.7-1.4,1.6-2.6,2.7-3.6
				c1.1-1,2.2-1.7,3.5-2.2c1.3-0.5,2.6-0.7,3.9-0.7c1.8,0,3.2,0.4,4.3,1.2c1.1,0.8,2,1.7,2.6,2.7l1.4-11.8h5.1l-3.7,30.3H281.1z
				 M282.4,128.5c-0.2-0.9-0.6-1.6-1.1-2.2c-0.5-0.6-1.1-1.1-1.8-1.4c-0.7-0.3-1.5-0.5-2.3-0.5c-0.9,0-1.7,0.2-2.5,0.5
				c-0.8,0.3-1.5,0.8-2.2,1.4c-0.7,0.6-1.2,1.3-1.6,2.2s-0.7,1.9-0.9,3c-0.1,1.1-0.1,2.1,0.1,2.9c0.2,0.9,0.6,1.6,1.1,2.2
				c0.5,0.6,1.1,1.1,1.8,1.4c0.7,0.3,1.5,0.5,2.4,0.5c0.8,0,1.6-0.2,2.5-0.5c0.8-0.3,1.5-0.8,2.2-1.4c0.7-0.6,1.2-1.4,1.7-2.2
				c0.5-0.9,0.7-1.8,0.9-2.9S282.6,129.4,282.4,128.5z"/>
			<path class="st0" d="M298.1,137.4c1,1,2.3,1.4,4,1.4c1.2,0,2.4-0.2,3.3-0.7c1-0.4,1.9-1.1,2.9-1.9l2.6,2.6
				c-1.2,1.2-2.6,2.2-4.1,3c-1.5,0.7-3.3,1.1-5.3,1.1c-1.6,0-3-0.3-4.3-0.8c-1.3-0.6-2.4-1.3-3.3-2.3c-0.9-1-1.5-2.2-1.9-3.6
				c-0.4-1.4-0.5-3-0.3-4.7c0.2-1.6,0.6-3.1,1.3-4.4c0.7-1.4,1.6-2.6,2.7-3.6c1.1-1,2.3-1.9,3.7-2.5c1.4-0.6,2.9-0.9,4.4-0.9
				c1.7,0,3.2,0.3,4.5,1c1.2,0.6,2.2,1.5,3,2.6c0.7,1.1,1.2,2.3,1.5,3.8c0.3,1.4,0.3,2.9,0.1,4.5c0,0.2-0.1,0.4-0.1,0.7
				c0,0.2-0.1,0.5-0.1,0.7h-16.1C296.5,135,297,136.4,298.1,137.4z M308,129.9c0-0.8-0.1-1.6-0.3-2.3c-0.2-0.7-0.5-1.3-0.9-1.8
				c-0.4-0.5-0.9-0.9-1.5-1.2c-0.6-0.3-1.3-0.5-2.2-0.5c-1.5,0-2.9,0.5-4,1.6c-1.1,1.1-1.9,2.5-2.4,4.2H308z"/>
		</g>
		<g>
			<path class="st0" d="M349.1,115.3c1.5,1.3,2.2,3.1,1.9,5.4c-0.1,0.9-0.3,1.7-0.6,2.4c-0.3,0.7-0.7,1.3-1.1,1.8
				c-0.4,0.5-0.9,1-1.5,1.4c-0.6,0.4-1.1,0.7-1.7,1c0.8,0.3,1.5,0.7,2.2,1.1c0.7,0.4,1.2,0.9,1.6,1.4c0.4,0.6,0.8,1.2,0.9,2
				c0.2,0.8,0.2,1.6,0.1,2.6c-0.2,1.3-0.6,2.4-1.2,3.4c-0.6,1-1.5,1.8-2.5,2.5c-1,0.7-2.2,1.2-3.6,1.5c-1.4,0.3-2.9,0.5-4.5,0.5
				h-13.4l3.6-29h13C345.3,113.4,347.6,114,349.1,115.3z M344.1,136.9c1.1-0.7,1.7-1.7,1.9-3c0.2-1.2-0.2-2.2-1.1-2.9
				c-0.9-0.7-2.3-1-4.4-1h-8.1l-1,8h8.4C341.6,137.9,343,137.5,344.1,136.9z M344,124.7c1.1-0.7,1.7-1.7,1.9-3
				c0.1-1.2-0.2-2.1-1-2.8c-0.8-0.7-2-1-3.7-1h-7.3l-1,7.8h6.9C341.5,125.6,342.9,125.3,344,124.7z"/>
			<path class="st0" d="M371.2,120.5h5.1l-2.7,21.9h-5.1l0.4-3.4c-0.8,1.1-1.9,2-3,2.7c-1.2,0.8-2.6,1.2-4.3,1.2
				c-2.5,0-4.3-0.8-5.5-2.3c-1.2-1.5-1.6-3.6-1.3-6.1l1.7-13.9h5.1l-1.5,12.4c-0.2,1.7,0,3,0.7,4c0.7,0.9,1.8,1.4,3.3,1.4
				c1.5,0,2.7-0.5,3.7-1.4c1-1,1.6-2.3,1.8-4L371.2,120.5z"/>
			<path class="st0" d="M401.5,136.3c-0.7,1.4-1.6,2.6-2.7,3.6c-1.1,1-2.3,1.7-3.5,2.2c-1.3,0.5-2.6,0.7-3.9,0.7
				c-1.8,0-3.2-0.4-4.3-1.2c-1.1-0.8-2-1.7-2.6-2.7l-1.2,10h-5.1l3.5-28.5h5.1l-0.4,3.7c0.9-1.2,2.1-2.1,3.3-2.9
				c1.3-0.8,2.8-1.2,4.6-1.2c1.3,0,2.5,0.2,3.7,0.7c1.2,0.5,2.1,1.2,3,2.2c0.8,1,1.5,2.2,1.9,3.6c0.4,1.4,0.5,3,0.3,4.9
				C402.7,133.3,402.2,134.9,401.5,136.3z M397.7,128.5c-0.2-0.9-0.6-1.6-1.1-2.2c-0.5-0.6-1.1-1.1-1.8-1.4
				c-0.7-0.3-1.5-0.5-2.4-0.5c-0.9,0-1.7,0.2-2.5,0.5c-0.8,0.3-1.6,0.8-2.2,1.4c-0.7,0.6-1.2,1.4-1.7,2.2c-0.5,0.9-0.7,1.8-0.9,2.9
				s-0.1,2,0.2,2.9c0.2,0.9,0.6,1.6,1.1,2.2c0.5,0.6,1.1,1.1,1.9,1.4c0.7,0.3,1.5,0.5,2.4,0.5c0.9,0,1.7-0.2,2.5-0.5
				c0.8-0.3,1.5-0.8,2.2-1.4c0.6-0.6,1.2-1.3,1.6-2.2c0.4-0.9,0.7-1.8,0.9-2.9S397.9,129.4,397.7,128.5z"/>
		</g>
		<path class="st0" d="M405.9,131.5L405.9,131.5c0.9-7.3,6.3-11.5,11.6-11.5c3.6,0,5.7,1.8,7,3.9l0.4-3.4h5l-2.7,21.9h-5l0.4-3.7
			c-1.9,2.3-4.4,4.1-8,4.1C409.5,142.8,405,138.7,405.9,131.5z M423.6,131.5L423.6,131.5c0.5-4.3-2.1-7.1-5.5-7.1
			c-3.4,0-6.6,2.7-7.2,7l0,0.1c-0.5,4.2,2,7,5.4,7C419.7,138.5,423.1,135.7,423.6,131.5z"/>
		<path class="st0" d="M198.5,87.8c-2,1.4-4.1,2.6-6.3,3.6c-2.2,1-4.6,1.8-7.1,2.3c-2.6,0.5-5.3,0.8-8.3,0.8c-4.7,0-9-0.9-12.8-2.6
			c-3.8-1.7-6.9-4.1-9.5-7c-2.6-3-4.4-6.5-5.6-10.5c-1.2-4.1-1.5-8.4-0.9-13.1c0.6-4.6,1.9-8.9,4-13c2.1-4.1,4.8-7.6,8.2-10.6
			c3.3-3,7.1-5.4,11.4-7.2c4.3-1.8,8.9-2.6,13.8-2.6c2.9,0,5.6,0.2,8,0.7c2.4,0.5,4.5,1.2,6.4,2.1c1.9,0.9,3.7,1.9,5.2,3.2
			c1.6,1.2,3,2.6,4.4,4.1l-8.3,8.4c-2.3-2.4-4.8-4.3-7.5-5.8c-2.7-1.5-5.9-2.2-9.6-2.2c-3.1,0-6,0.6-8.7,1.8
			c-2.8,1.2-5.2,2.8-7.4,4.9c-2.2,2.1-3.9,4.5-5.3,7.2c-1.4,2.8-2.3,5.7-2.7,8.9c-0.4,3.2-0.2,6.2,0.5,9c0.7,2.8,1.9,5.2,3.5,7.3
			c1.6,2.1,3.7,3.7,6.2,4.9c2.5,1.2,5.2,1.8,8.3,1.8c3.9,0,7.4-0.8,10.4-2.3c3-1.5,6.1-3.5,9.1-6.1l6.4,7.4
			C202.4,84.8,200.5,86.4,198.5,87.8z"/>
		<path class="st0" d="M221.7,93.3h-11.2l6-48.6h11.2l-1.3,11c2-3.7,4.5-6.6,7.6-8.8c3.1-2.2,6.8-3.2,11.1-3l-1.4,11.8h-0.6
			c-2.5,0-4.7,0.4-6.9,1.2c-2.1,0.8-4,2-5.7,3.6c-1.7,1.6-3.1,3.6-4.1,6c-1.1,2.4-1.8,5.2-2.2,8.4L221.7,93.3z"/>
		<path class="st0" d="M283.2,44.7h11.2l-6,48.6h-11.2l0.9-7.6c-1.9,2.4-4.1,4.4-6.7,6.1c-2.6,1.7-5.8,2.6-9.5,2.6
			c-5.5,0-9.6-1.7-12.1-5.1c-2.6-3.4-3.5-7.9-2.8-13.6l3.8-30.9H262l-3.4,27.6c-0.5,3.8,0.1,6.7,1.6,8.8c1.5,2.1,4,3.1,7.2,3.1
			c3.2,0,6-1.1,8.2-3.2c2.3-2.1,3.6-5.1,4.1-8.9L283.2,44.7z"/>
		<path class="st0" d="M303,53.8l1.1-9.1h41.3l-0.9,7.6l-32,31.9h28.1l-1.1,9.1h-42.3l0.9-7.6l32-31.9H303z"/>
		<path class="st0" d="M400.7,33.3c3.4,3,4.8,7,4.2,12.1c-0.2,2-0.7,3.7-1.4,5.3c-0.7,1.5-1.5,2.9-2.5,4c-1,1.1-2.1,2.1-3.3,3
			c-1.2,0.9-2.5,1.6-3.7,2.2c1.8,0.7,3.4,1.5,4.9,2.3c1.4,0.9,2.7,1.9,3.6,3.2c1,1.2,1.7,2.7,2.1,4.4c0.4,1.7,0.5,3.6,0.2,5.8
			c-0.4,2.9-1.2,5.4-2.6,7.6c-1.4,2.2-3.2,4.1-5.5,5.6c-2.3,1.5-4.9,2.6-8,3.4c-3,0.8-6.3,1.1-9.9,1.1h-29.8l7.9-64.5h28.9
			C392.3,28.9,397.3,30.4,400.7,33.3z M389.6,81.1c2.4-1.5,3.8-3.7,4.1-6.7c0.3-2.8-0.5-4.9-2.5-6.4c-2-1.5-5.2-2.3-9.7-2.3h-17.9
			l-2.2,17.7h18.7C384.1,83.3,387.2,82.6,389.6,81.1z M389.4,54c2.4-1.5,3.8-3.7,4.1-6.7c0.3-2.7-0.4-4.7-2.1-6.2
			c-1.8-1.5-4.5-2.2-8.1-2.2H367l-2.1,17.2h15.4C384,56.1,387,55.4,389.4,54z"/>
		<path class="st0" d="M411.8,93.3l8.3-67.2h11.2L423,93.3H411.8z"/>
		<path class="st0" d="M501.1,93.3h-11.2l6-48.6H507l-0.9,7.6c0.9-1.2,1.9-2.3,3-3.3c1.1-1,2.3-1.9,3.6-2.7c1.4-0.8,2.8-1.4,4.4-1.9
			c1.6-0.5,3.3-0.7,5.2-0.7c5.5,0,9.6,1.7,12.1,5.1c2.6,3.4,3.5,7.9,2.8,13.6l-3.8,30.9h-11.2l3.4-27.6c0.5-3.8-0.1-6.7-1.6-8.8
			c-1.5-2.1-4-3.1-7.2-3.1c-3.2,0-6,1.1-8.2,3.2c-2.3,2.1-3.6,5.1-4.1,8.9L501.1,93.3z"/>
		<path class="st0" d="M578.2,91.9c-3.3,1.7-7.3,2.5-12,2.5c-3.6,0-6.9-0.7-9.8-2c-2.9-1.3-5.4-3.1-7.3-5.4c-2-2.3-3.4-5-4.3-8
			c-0.9-3-1.1-6.3-0.7-9.8c0.4-3.5,1.5-6.8,3.1-9.9c1.6-3.1,3.7-5.8,6.3-8.1c2.5-2.3,5.5-4.2,8.7-5.5c3.3-1.3,6.7-2,10.3-2
			c4.6,0,8.3,0.8,11.2,2.3c2.9,1.5,5.3,3.6,7.2,6.1l-7.8,7.5c-1.5-1.8-3.1-3.2-4.9-4.4c-1.8-1.1-4.1-1.7-6.9-1.7c-2,0-4,0.4-5.8,1.2
			c-1.8,0.8-3.4,1.9-4.8,3.4c-1.4,1.4-2.6,3.1-3.5,4.9c-0.9,1.9-1.5,3.9-1.8,6c-0.3,2.2-0.2,4.3,0.3,6.2c0.5,1.9,1.3,3.6,2.4,5
			c1.1,1.4,2.5,2.5,4.2,3.4c1.7,0.8,3.6,1.2,5.7,1.2c2.6,0,5-0.6,7.2-1.7c2.1-1.1,4.2-2.6,6.2-4.4l5.9,6.6
			C584.5,88,581.5,90.2,578.2,91.9z"/>
		<path class="st0" d="M594.5,69.2l0-0.2c2-16.1,14-25.3,25.6-25.3c8,0,12.6,4,15.5,8.6l0.9-7.6h11.1l-6,48.7h-11.1l1-8.1
			c-4.2,5.1-9.8,9.1-17.7,9.1C602.6,94.5,592.5,85.3,594.5,69.2z M633.8,69.2l0-0.2c1.2-9.4-4.7-15.6-12.2-15.6
			c-7.6,0-14.7,5.9-15.9,15.6l0,0.2c-1.2,9.4,4.5,15.6,12.1,15.6C625.3,84.8,632.6,78.5,633.8,69.2z"/>
		<path class="st0" d="M434,69.2l0-0.2c2-16.1,14-25.3,25.6-25.3c8,0,12.6,4,15.5,8.6l0.9-7.6h11.1l-6,48.7h-11.1l1-8.1
			c-4.2,5.1-9.8,9.1-17.7,9.1C442.1,94.5,432.1,85.3,434,69.2z M473.3,69.2l0-0.2c1.2-9.4-4.7-15.6-12.2-15.6
			c-7.6,0-14.7,5.9-15.9,15.6l0,0.2c-1.2,9.4,4.5,15.6,12.1,15.6C464.8,84.8,472.1,78.5,473.3,69.2z"/>
	</g>
</g>
</svg>
